<?xml version="1.0" encoding="UTF-8" standalone="no"?>
<!-- Creator: CorelDRAW -->

<svg
   xml:space="preserve"
   width="191.935mm"
   height="191.935mm"
   style="shape-rendering:geometricPrecision; text-rendering:geometricPrecision; image-rendering:optimizeQuality; fill-rule:evenodd; clip-rule:evenodd"
   viewBox="0 0 191.935 191.935"
   version="1.1"
   id="svg2"
   sodipodi:docname="mutabilitaet_nein_danke.svg"
   inkscape:version="1.3.2 (091e20ef0f, 2023-11-25)"
   xmlns:inkscape="http://www.inkscape.org/namespaces/inkscape"
   xmlns:sodipodi="http://sodipodi.sourceforge.net/DTD/sodipodi-0.dtd"
   xmlns:xlink="http://www.w3.org/1999/xlink"
   xmlns="http://www.w3.org/2000/svg"
   xmlns:svg="http://www.w3.org/2000/svg"><sodipodi:namedview
   id="namedview2"
   pagecolor="#ffffff"
   bordercolor="#000000"
   borderopacity="0.25"
   inkscape:showpageshadow="2"
   inkscape:pageopacity="0.0"
   inkscape:pagecheckerboard="0"
   inkscape:deskcolor="#d1d1d1"
   inkscape:document-units="mm"
   inkscape:zoom="1.1346092"
   inkscape:cx="471.52799"
   inkscape:cy="347.25613"
   inkscape:window-width="2560"
   inkscape:window-height="1368"
   inkscape:window-x="0"
   inkscape:window-y="0"
   inkscape:window-maximized="1"
   inkscape:current-layer="_81132720"
   showguides="true" />
 <defs
   id="defs1"><rect
   x="-187.50529"
   y="341.54923"
   width="118.93934"
   height="132.66957"
   id="rect1" /><rect
   x="58.70891"
   y="212.29761"
   width="577.97943"
   height="163.53582"
   id="rect3" />
  <style
   type="text/css"
   id="style1">
   <![CDATA[
    .fil1 {fill:#1F1A17}
    .fil2 {fill:#DE411A}
    .fil0 {fill:#FACF00}
    .fil3 {fill:#1F1A17;fill-rule:nonzero}
   ]]>
  </style>
 </defs>
 <g
   id="Ebene_x0020_1"
   inkscape:label="Ebene 1">
  <metadata
   id="CorelCorpID_0Corel-Layer" />
  <g
   id="_81132720">
   <path
   id="_78721264"
   class="fil0"
   d="M-0 95.9772c0,-52.9997 42.9612,-95.9729 95.9618,-95.9772l0.0158 0c52.9925,0.0043 95.9575,42.9774 95.9575,95.9773 0.0001,52.4434 -42.0664,95.0614 -94.2879,95.9577l-3.3553 0c-52.2293,-0.8963 -94.2919,-43.5143 -94.2919,-95.9578z" />
   
   
   
   
   
   
  <g
   id="g3"
   transform="matrix(1.4812995,0,0,1.4812995,-45.822598,-45.499766)"><g
     id="g2"
     style="clip-rule:evenodd;fill:#000000;fill-opacity:1;fill-rule:evenodd;stroke:none;image-rendering:optimizeQuality;shape-rendering:geometricPrecision;text-rendering:geometricPrecision"
     transform="matrix(0.53982441,0,0,0.53982441,41.695618,42.93132)">
    <path
   id="_80858752"
   class="fil1"
   d="m 84.1086,86.1695 c 0,0 1.6418,1.8557 3.2639,0.9572 1.6235,-0.8982 -0.8745,-4.753 -0.8745,-4.753 0,-1e-4 -2.5439,-3.9373 -7.8987,-4.1271 -7.0129,-0.241 -12.2037,5.2623 -12.2037,5.2623 0,0 -2.6275,3.5649 -2.172,4.0242 0.453,0.4614 2.8666,-2.0422 2.8666,-2.0422 1e-4,-1e-4 4.0972,-4.9672 11.0409,-4.2891 4.3756,0.4141 5.9711,4.8249 5.9775,4.9677 z"
   style="fill:#000000;fill-opacity:1;stroke:none" />
    <path
   id="_78765152"
   class="fil1"
   d="m 104.6,103.096 c 1.87,-0.4124 -1.3668,-3.1009 -3.7491,-10.8154 -1.5754,-5.108 -1.1969,-8.8272 -1.8499,-9.2266 -1.0206,-0.599 -1.9495,2.291 -0.4802,10.2997 0.5533,3.0035 2.6568,10.4895 6.0792,9.74231 z"
   style="fill:#000000;fill-opacity:1;stroke:none" />
    <path
   id="_78682336"
   class="fil1"
   d="m 125.194,90.1228 c 0,0 2.0369,2.044 3.2127,0.9144 1.1593,-1.1409 0.0226,-4.1973 0.0226,-4.1973 0.0681,-0.4277 -3.3059,-4.4715 -6.9011,-5.109 -4.7751,-0.8396 -8.576,-0.5976 -13.2838,2.9408 1e-4,-1e-4 -4.1169,3.6992 -3.2763,4.372 0.8224,0.6705 2.7443,-1.8676 2.7443,-1.8676 1e-4,-1e-4 6.1821,-5.0589 11.4406,-3.4414 5.2434,1.6227 6.041,6.3881 6.041,6.3881 z"
   style="fill:#000000;fill-opacity:1;stroke:none" />
    <path
   id="_81117720"
   class="fil1"
   d="m 104.033,116.679 c 18.1638,-1.6683 20.2109,-11.9478 19.583,-9.99801 l 1.0541,-0.2636 c 0,0 -2.4409,11.0346 -20.1824,13.7845 -16.5312,2.5692 -31.1828,-15.8874 -29.3981,-13.4366 l -2.5078,0.0144 2.2359,-1.9219 c -1.3159,-1.3554 10.2506,13.5664 29.2153,11.8212 z"
   style="fill:#000000;fill-opacity:1;stroke:none" />
   </g><path
     d="m 73.208742,45.275671 -6.4553,0.0095 -3.161394,5.470914 7.368698,12.839572 -14.846245,-0.03786 -6.247065,11.074338 H 105.19182 L 98.788579,63.595663 83.682042,63.567267 73.20401,45.275671 Z m 29.223958,0 -12.71656,0.118316 27.66692,47.927295 6.34646,-11.074346 -7.52489,-13.085707 10.60108,-18.220606 -3.23237,-5.593962 h -6.32279 l -7.43022,12.80175 -7.3829,-12.87274 z m 32.59359,19.853362 -27.66693,47.917817 12.75916,-0.0378 7.57692,-13.062039 21.0744,0.0757 3.22764,-5.598692 -3.15192,-5.475653 -14.81312,-0.03784 7.44915,-12.834874 -6.46004,-10.946562 z m -51.973687,10.880304 -12.759157,0.03784 -7.576934,13.062043 -21.074378,-0.07568 -3.227651,5.59397 3.151929,5.47564 14.813116,0.0378 -7.453884,12.8254 6.460033,10.95603 z m -9.947978,19.706654 -0.02839,0.04733 -0.0095,-0.01896 -6.351182,11.074329 7.524873,13.08572 -10.60108,18.2206 3.237116,5.59396 h 6.322786 l 0.01893,-0.0283 h 0.0048 l 7.416024,-12.76862 7.373423,12.87274 12.721295,-0.12304 -0.0189,-0.0283 h 0.0473 z m 12.068193,18.599209 6.407978,11.03648 15.106524,0.0283 10.48277,18.2916 6.45057,-0.01 3.16139,-5.47092 -7.36869,-12.83961 14.84624,0.0378 6.24707,-11.07433 H 85.177551 Z"
     id="path1-7"
     style="fill:#de411a;fill-opacity:1;stroke-width:4.73261" /></g><path
   id="path3"
   class="fil0"
   d="M 24.751605,91.754679 C 27.118142,52.447792 60.898874,22.495294 100.20662,24.858681 l 0.0117,7.06e-4 c 39.30135,2.369409 69.24723,36.158596 66.88069,75.465633 m 0,0 C 161.48601,193.55741 19.161885,184.59688 24.751604,91.754679"
   style="fill:none;stroke:none;stroke-width:0.742986"
   sodipodi:nodetypes="cssccc" /><text
   xml:space="preserve"
   id="text3"
   style="font-style:normal;font-variant:normal;font-weight:normal;font-stretch:normal;font-size:25.4px;font-family:'TeX Gyre Adventor';-inkscape-font-specification:'TeX Gyre Adventor';letter-spacing:5.01385px;white-space:pre;fill:#000000;stroke:#000000"><textPath
     xlink:href="#path3"
     id="textPath3"
     style="font-style:normal;font-variant:normal;font-weight:bold;font-stretch:normal;font-size:25.4px;font-family:Hack;-inkscape-font-specification:'Hack Bold';letter-spacing:5.01385px;fill:#000000">MUTABILITÄT</textPath></text><path
   id="path1"
   class="fil0"
   d="m 9.598401,125.86439 c 17.294359,47.77855 70.045953,72.49964 117.826729,55.20885 l 0.014,-0.005 c 47.77074,-17.29611 72.48056,-70.05575 55.18614,-117.834486 m 0,0 C 141.60497,-50.092672 -31.250596,13.012234 9.598401,125.86439"
   style="fill:none;stroke:none;stroke-width:0.958727"
   sodipodi:nodetypes="cssccc" /><text
   xml:space="preserve"
   style="font-style:normal;font-variant:normal;font-weight:normal;font-stretch:normal;font-size:25.4px;font-family:Hack;-inkscape-font-specification:Hack;letter-spacing:7.9375px;writing-mode:lr-tb;direction:ltr;fill:#000000;stroke:#000000;stroke-width:1"
   id="text2"><textPath
     xlink:href="#path1"
     id="textPath2"
     style="font-style:normal;font-variant:normal;font-weight:bold;font-stretch:normal;font-size:25.4px;font-family:Hack;-inkscape-font-specification:'Hack Bold';letter-spacing:7.9375px;stroke-width:1">NEIN DANKE</textPath></text></g>
 </g>
</svg>
